<svg width="14" height="14" viewBox="0 0 14 14" fill="none" xmlns="http://www.w3.org/2000/svg">
<path d="M14 7C14 3.16129 10.8387 0 7 0C3.13306 0 0 3.16129 0 7C0 10.8669 3.13306 14 7 14C10.8387 14 14 10.8669 14 7ZM7 8.41129C7.70565 8.41129 8.29839 9.00403 8.29839 9.70968C8.29839 10.4435 7.70565 11.0081 7 11.0081C6.26613 11.0081 5.70161 10.4435 5.70161 9.70968C5.70161 9.00403 6.26613 8.41129 7 8.41129ZM5.75806 3.75403C5.72984 3.55645 5.89919 3.3871 6.09677 3.3871H7.875C8.07258 3.3871 8.24194 3.55645 8.21371 3.75403L8.01613 7.59274C7.9879 7.79032 7.84677 7.90323 7.67742 7.90323H6.29435C6.125 7.90323 5.98387 7.79032 5.95565 7.59274L5.75806 3.75403Z" fill="#5F5F5F"/>
</svg>
