<svg width="33" height="36" viewBox="0 0 33 36" fill="none" xmlns="http://www.w3.org/2000/svg">
<path fill-rule="evenodd" clip-rule="evenodd" d="M30.1068 3.99811C30.1068 4.87245 30.261 5.14588 29.6664 5.74971C29.1181 6.38614 28.7644 6.67523 28.0367 6.998C27.3089 7.32077 26.6096 7.02994 26.0015 6.39471C25.4227 5.79088 25.1328 5.0518 25.1328 4.17746C25.1328 3.33451 25.4227 2.58818 26.0015 1.93726C26.6096 1.31773 27.3889 1.34792 28.1752 1.34792C29.0067 1.34792 28.7743 1.31652 29.3225 1.93726C29.9171 2.58818 30.1068 2.98496 30.1068 3.82791V3.99811Z" fill="#F3AD54"/>
<path fill-rule="evenodd" clip-rule="evenodd" d="M20.323 17.3743C17.9291 16.8861 16.3978 17.0743 15 17.9997C17.2889 16.025 16.5388 15.5631 20.323 17.3743Z" fill="#F3AD54"/>
<path fill-rule="evenodd" clip-rule="evenodd" d="M13.2539 12.187C19.1211 11.102 20.3495 11.5138 21.4997 16.0014C19.4773 13.8183 17.3944 12.3355 13.4176 12.2499L13.2539 12.187Z" fill="#F3AD54"/>
<path fill-rule="evenodd" clip-rule="evenodd" d="M22.8086 16.8795C25.5683 12.4545 24.9506 12.1838 31.4672 13.9982C27.4035 14.2945 25.5683 14.5952 22.8086 16.6936V16.8795Z" fill="#F3AD54"/>
<path fill-rule="evenodd" clip-rule="evenodd" d="M24 18.5003C26.911 18.518 29.2151 18.9695 31.6375 20.1836C28.8961 16.4528 25.2065 17.0447 24 18.5003Z" fill="#F3AD54"/>
<path fill-rule="evenodd" clip-rule="evenodd" d="M23.3438 20C24.8674 21.7698 25.9125 23.4364 25.9988 25C27.9964 22.0803 24.0559 20.6243 23.3438 20Z" fill="#F3AD54"/>
<path fill-rule="evenodd" clip-rule="evenodd" d="M17 28.0497C18.1644 25.3274 19.3945 22.2679 21.2955 19.3555L22 20.0005C19.481 24.4391 18.7152 29.1062 19.7026 34.0005H17.9785" fill="#F3AD54"/>
<path fill-rule="evenodd" clip-rule="evenodd" d="M19.7078 6.26652C16.5382 5.37154 12.4453 5.54955 12.4453 10.1325C14.1692 7.80878 16.0983 6.7545 19.7078 6.48625V6.26652Z" fill="#F3AD54"/>
<path fill-rule="evenodd" clip-rule="evenodd" d="M6.1724 18.9498C5.66539 16.0662 6.1565 13.9585 9.68375 13.5859C7.84779 14.7518 7.54239 15.5828 6.5015 17.5515L6.1724 18.9498Z" fill="#F3AD54"/>
<path fill-rule="evenodd" clip-rule="evenodd" d="M2.28906 6.27989C6.36264 6.24786 7.57169 7.68709 10.2063 9.92369C9.86683 4.60471 6.00277 5.64207 2.28906 6.27989Z" fill="#F3AD54"/>
<path fill-rule="evenodd" clip-rule="evenodd" d="M2.17583 12.2468C4.88535 9.49011 6.93686 9.53885 9.17863 11.758C6.0668 11.758 5.37449 11.8209 2.66496 12.2468C-0.0445663 12.6728 2.17583 12.2468 2.17583 12.2468Z" fill="#F3AD54"/>
<path fill-rule="evenodd" clip-rule="evenodd" d="M11.3984 13.5855C12.4305 16.0477 14.0019 20.1378 14.4963 24.5668C15.0362 27.3845 14.9373 28.7053 14.9226 30.6568C14.9089 32.6082 14.7669 34.057 14.4963 35.001L17.9995 34.8856C17.7904 32.2363 17.2391 28.7701 16.1332 24.0928C14.891 18.9047 13.0547 15.0685 11.8875 12.6992L11.3984 13.5855Z" fill="#F3AD54"/>
<path d="M19.2695 30.5C18.9934 30.5 18.7695 30.7239 18.7695 31C18.7695 31.2761 18.9934 31.5 19.2695 31.5V30.5ZM27.0009 31.5C27.2771 31.5 27.5009 31.2761 27.5009 31C27.5009 30.7239 27.2771 30.5 27.0009 30.5V31.5ZM7 30.5C6.72386 30.5 6.5 30.7239 6.5 31C6.5 31.2761 6.72386 31.5 7 31.5V30.5ZM12.8338 31.5C13.11 31.5 13.3338 31.2761 13.3338 31C13.3338 30.7239 13.11 30.5 12.8338 30.5V31.5ZM19.2695 31.5H27.0009V30.5H19.2695V31.5ZM7 31.5H12.8338V30.5H7V31.5Z" fill="#222221"/>
<path d="M1 12.6966L0.671903 12.4678C0.574194 12.6079 0.576238 12.7946 0.676993 12.9326C0.777748 13.0705 0.954977 13.1292 1.11817 13.0788L1 12.6966ZM9.49238 12.0094L9.44452 12.4065C9.60729 12.4261 9.76556 12.3444 9.84384 12.2004C9.92212 12.0563 9.90457 11.8791 9.79955 11.7532L9.49238 12.0094ZM10.3926 10.3774L10.0744 10.6198C10.177 10.7545 10.3533 10.81 10.5145 10.7584C10.6757 10.7068 10.787 10.5593 10.7924 10.3901L10.3926 10.3774ZM1.73438 6.47212L1.56114 6.11158C1.39229 6.19271 1.30236 6.38016 1.34475 6.56263C1.38714 6.74511 1.55049 6.87372 1.73782 6.8721L1.73438 6.47212ZM11.1055 13.5753L10.7721 13.3544C10.6972 13.4673 10.6846 13.6105 10.7386 13.7348L11.1055 13.5753ZM13.5245 24.1109L13.1271 24.1568L13.1271 24.157L13.5245 24.1109ZM13.4536 35.0015L13.07 34.888C13.0342 35.009 13.0576 35.1398 13.1331 35.2409C13.2086 35.342 13.3274 35.4015 13.4536 35.4015V35.0015ZM17.889 35.0015V35.4015C18.0008 35.4015 18.1075 35.3548 18.1832 35.2726C18.2589 35.1904 18.2968 35.0803 18.2877 34.9689L17.889 35.0015ZM15.8017 23.8027L16.1902 23.7073L16.1899 23.7063L15.8017 23.8027ZM11.9839 12.25L12.3401 12.0681C12.2755 11.9415 12.1485 11.8587 12.0065 11.8506C11.8646 11.8426 11.729 11.9105 11.6505 12.029L11.9839 12.25ZM6.17144 18.9464L5.80648 19.1101C5.87592 19.2649 6.03543 19.3591 6.20448 19.345C6.37353 19.331 6.51536 19.2119 6.55837 19.0478L6.17144 18.9464ZM9.68279 13.4531L9.92498 13.7715C10.0621 13.6672 10.117 13.4868 10.0613 13.3238C10.0056 13.1608 9.85179 13.0517 9.67953 13.0531L9.68279 13.4531ZM20.0003 6.59121L20.0323 6.98993C20.2121 6.9755 20.36 6.84257 20.3934 6.66536C20.4268 6.48814 20.3375 6.31047 20.1754 6.23155L20.0003 6.59121ZM12.1484 10.7112L11.7485 10.7051C11.7458 10.8814 11.8589 11.0387 12.0269 11.0923C12.1949 11.1458 12.3781 11.0831 12.478 10.9378L12.1484 10.7112ZM1.3281 12.9254C2.6816 10.9846 3.98475 10.0639 5.21942 9.96397C6.44242 9.865 7.76294 10.5605 9.18521 12.2656L9.79955 11.7532C8.31251 9.97039 6.76278 9.03646 5.15489 9.16658C3.55867 9.29575 2.07028 10.4626 0.671903 12.4678L1.3281 12.9254ZM9.54024 11.6122C6.48418 11.2439 3.59721 11.4748 0.881831 12.3145L1.11817 13.0788C3.71669 12.2752 6.4897 12.0504 9.44452 12.4065L9.54024 11.6122ZM10.7924 10.3901C10.88 7.62508 10.2021 5.69844 8.52258 4.94092C7.70322 4.57135 6.70204 4.51236 5.55064 4.71515C4.39812 4.91814 3.06662 5.38821 1.56114 6.11158L1.90761 6.83266C3.37513 6.12753 4.63403 5.6889 5.6894 5.50302C6.74589 5.31695 7.57009 5.38891 8.19366 5.67017C9.40004 6.21431 10.0782 7.66879 9.99279 10.3647L10.7924 10.3901ZM1.73782 6.8721C5.39503 6.84064 8.1539 8.09956 10.0744 10.6198L10.7107 10.1349C8.61521 7.38502 5.60114 6.03883 1.73093 6.07213L1.73782 6.8721ZM10.7386 13.7348C11.8071 16.1931 12.6076 19.6593 13.1271 24.1568L13.9218 24.065C13.3983 19.5335 12.5861 15.9783 11.4723 13.4159L10.7386 13.7348ZM13.1271 24.157C13.3947 26.4642 13.5197 28.6017 13.5042 30.5714L14.3042 30.5777C14.32 28.5701 14.1926 26.3994 13.9218 24.0648L13.1271 24.157ZM13.5042 30.5714C13.4887 32.5517 13.3383 33.9819 13.07 34.888L13.8371 35.1151C14.1385 34.0973 14.2885 32.5746 14.3042 30.5777L13.5042 30.5714ZM13.4536 35.4015H17.889V34.6015H13.4536V35.4015ZM18.2877 34.9689C18.064 32.2386 17.3623 28.4807 16.1902 23.7073L15.4132 23.8981C16.582 28.6576 17.2719 32.3672 17.4904 35.0342L18.2877 34.9689ZM16.1899 23.7063C14.8761 18.4131 13.5948 14.525 12.3401 12.0681L11.6277 12.4319C12.8389 14.8038 14.1028 18.6183 15.4135 23.899L16.1899 23.7063ZM11.6505 12.029L10.7721 13.3544L11.4389 13.7963L12.3173 12.471L11.6505 12.029ZM6.53639 18.7827C5.73294 16.9918 5.69612 15.8 6.16509 15.0663C6.6337 14.3332 7.72796 13.8691 9.68605 13.8531L9.67953 13.0531C7.66842 13.0695 6.19286 13.5374 5.49102 14.6355C4.78954 15.7329 4.98164 17.2716 5.80648 19.1101L6.53639 18.7827ZM9.44061 13.1348C7.63775 14.5063 6.42077 16.4174 5.78451 18.845L6.55837 19.0478C7.15504 16.7713 8.28137 15.0219 9.92498 13.7715L9.44061 13.1348ZM20.1754 6.23155C17.5827 4.96968 15.4773 4.60212 13.985 5.38513C12.469 6.18063 11.7886 8.04679 11.7485 10.7051L12.5484 10.7172C12.5876 8.11975 13.2555 6.67135 14.3567 6.09353C15.4818 5.50322 17.2626 5.70358 19.8253 6.95087L20.1754 6.23155ZM12.478 10.9378C14.0899 8.59375 16.5846 7.26657 20.0323 6.98993L19.9683 6.19249C16.3308 6.48436 13.5934 7.90383 11.8188 10.4845L12.478 10.9378Z" fill="#222221"/>
<path d="M22.8086 17.0104L22.4114 16.9633C22.3914 17.1315 22.4796 17.294 22.6314 17.369C22.7832 17.444 22.9658 17.4153 23.0873 17.2973L22.8086 17.0104ZM31.9984 14.3499L31.9426 14.746C32.128 14.7722 32.3068 14.6661 32.3728 14.4908C32.4388 14.3155 32.3743 14.1179 32.2176 14.0153L31.9984 14.3499ZM25.8415 25.3412L25.4422 25.3643C25.452 25.5335 25.5673 25.6782 25.73 25.7254C25.8928 25.7726 26.0676 25.7121 26.1665 25.5745L25.8415 25.3412ZM23.168 20.0664L23.2113 19.6688C23.0463 19.6508 22.8873 19.7366 22.8118 19.8844C22.7362 20.0323 22.7599 20.2114 22.8712 20.3346L23.168 20.0664ZM16.5391 26.6826L16.1766 26.5135C16.1414 26.5889 16.1306 26.6734 16.1457 26.7552L16.5391 26.6826ZM21.1393 18.6875L21.5057 18.527C21.4479 18.3951 21.3237 18.3045 21.1805 18.2896C21.0373 18.2748 20.8972 18.3381 20.8136 18.4553L21.1393 18.6875ZM21.7838 20.1584L22.1237 20.3693C22.1931 20.2574 22.203 20.1185 22.1502 19.9979L21.7838 20.1584ZM19.3025 33.9988V34.3988C19.4237 34.3988 19.5384 34.3438 19.6143 34.2493C19.6903 34.1549 19.7193 34.031 19.6932 33.9127L19.3025 33.9988ZM17.8889 33.9988L17.4955 34.0713C17.5305 34.2611 17.6959 34.3988 17.8889 34.3988V33.9988ZM14.957 18.1983L14.5738 18.0837C14.5262 18.2428 14.5819 18.4148 14.7137 18.5158C14.8456 18.6168 15.0261 18.6258 15.1674 18.5385L14.957 18.1983ZM20.5894 17.5917L20.5146 17.9846C20.6854 18.0172 20.8578 17.9356 20.9409 17.7827C21.024 17.6299 20.9987 17.4409 20.8785 17.3152L20.5894 17.5917ZM13 12.4573L12.8131 12.1037C12.6522 12.1887 12.569 12.3716 12.6106 12.5488C12.6522 12.7259 12.8081 12.8527 12.9901 12.8572L13 12.4573ZM21.4982 16.169L21.1862 16.4193C21.2956 16.5557 21.481 16.6052 21.6438 16.5415C21.8067 16.4778 21.9093 16.3157 21.8972 16.1413L21.4982 16.169ZM31.8816 20.1832L31.7273 20.5522C31.8833 20.6175 32.0635 20.5776 32.1774 20.4525C32.2913 20.3274 32.3142 20.1443 32.2346 19.995L31.8816 20.1832ZM23.5273 18.5715L23.2658 18.2689C23.1397 18.3779 23.0944 18.5537 23.1521 18.7101C23.2099 18.8665 23.3586 18.9707 23.5253 18.9715L23.5273 18.5715ZM23.2058 17.0575C23.5192 14.4122 24.4076 13.0759 25.6946 12.7033C26.3595 12.5109 27.192 12.5517 28.2153 12.8756C29.2377 13.1993 30.4247 13.7976 31.7793 14.6846L32.2176 14.0153C30.8273 13.105 29.5727 12.4662 28.4567 12.1129C27.3416 11.7599 26.339 11.684 25.4722 11.9349C23.6957 12.4492 22.734 14.2404 22.4114 16.9633L23.2058 17.0575ZM32.0543 13.9539C28.1966 13.4097 25.0036 14.3206 22.5299 16.7235L23.0873 17.2973C25.356 15.0935 28.2888 14.2307 31.9426 14.746L32.0543 13.9539ZM26.1665 25.5745C27.28 24.023 27.7465 22.6314 27.1886 21.5306C26.9118 20.9844 26.4098 20.5742 25.7455 20.2759C25.0826 19.9783 24.2327 19.78 23.2113 19.6688L23.1246 20.4641C24.1002 20.5703 24.8594 20.755 25.4178 21.0057C25.9748 21.2558 26.3063 21.5594 26.475 21.8923C26.8083 22.5498 26.6146 23.578 25.5165 25.108L26.1665 25.5745ZM22.8712 20.3346C24.5273 22.1677 25.354 23.8426 25.4422 25.3643L26.2408 25.3181C26.1379 23.5408 25.1822 21.6992 23.4648 19.7983L22.8712 20.3346ZM16.9015 26.8517C18.1508 24.1745 19.431 21.7725 21.465 18.9197L20.8136 18.4553C18.7436 21.3586 17.44 23.8059 16.1766 26.5135L16.9015 26.8517ZM20.7729 18.848L21.4174 20.319L22.1502 19.9979L21.5057 18.527L20.7729 18.848ZM21.4439 19.9476C18.6708 24.4189 17.822 29.1388 18.9119 34.0848L19.6932 33.9127C18.6501 29.1794 19.4555 24.6716 22.1237 20.3693L21.4439 19.9476ZM19.3025 33.5988H17.8889V34.3988H19.3025V33.5988ZM18.2822 33.9262L16.9324 26.61L16.1457 26.7552L17.4955 34.0713L18.2822 33.9262ZM15.3403 18.3129C15.8274 16.684 16.4728 16.0428 17.1477 15.9701C17.5035 15.9318 17.9422 16.0362 18.4794 16.3475C19.0157 16.6583 19.6227 17.1598 20.3004 17.8682L20.8785 17.3152C20.1716 16.5763 19.5057 16.0176 18.8805 15.6553C18.2562 15.2935 17.6449 15.1119 17.062 15.1747C15.8596 15.3042 15.0733 16.4135 14.5738 18.0837L15.3403 18.3129ZM20.6643 17.1988C18.2425 16.7372 16.2495 16.9289 14.7467 17.8581L15.1674 18.5385C16.4336 17.7555 18.1964 17.5428 20.5146 17.9846L20.6643 17.1988ZM13.1869 12.811C15.8215 11.4185 17.7039 11.1113 18.9391 11.6508C20.1407 12.1756 20.9186 13.5969 21.0991 16.1967L21.8972 16.1413C21.7114 13.465 20.8901 11.6299 19.2593 10.9177C17.6619 10.22 15.4784 10.695 12.8131 12.1037L13.1869 12.811ZM21.8102 15.9187C19.8092 13.4245 16.8538 12.1531 13.0099 12.0575L12.9901 12.8572C16.6577 12.9484 19.3661 14.1507 21.1862 16.4193L21.8102 15.9187ZM32.2346 19.995C31.1379 17.9376 29.8251 16.6669 28.2573 16.3645C26.6877 16.0617 25.0137 16.7584 23.2658 18.2689L23.7889 18.8742C25.4618 17.4286 26.8906 16.9156 28.1058 17.15C29.3227 17.3847 30.4767 18.3979 31.5287 20.3713L32.2346 19.995ZM23.5253 18.9715C26.5173 18.9867 29.2508 19.5162 31.7273 20.5522L32.036 19.8142C29.4532 18.7337 26.6148 18.1872 23.5294 18.1715L23.5253 18.9715Z" fill="#222221"/>
<path fill-rule="evenodd" clip-rule="evenodd" d="M30 4C30 4.82743 29.6994 5.52571 29.0971 6.09714C28.5417 6.69943 27.8423 7 27 7C26.2023 7 25.496 6.69943 24.8789 6.09714C24.2926 5.52571 24 4.82743 24 4C24 3.20229 24.2926 2.496 24.8789 1.88C25.496 1.29257 26.2023 1 27 1C27.8423 1 28.5417 1.29257 29.0971 1.88C29.6994 2.496 30 3.20229 30 4Z" stroke="#222221" stroke-width="0.8" stroke-linecap="round" stroke-linejoin="round"/>
</svg>
