<svg width="33" height="23" viewBox="0 0 33 23" fill="none" xmlns="http://www.w3.org/2000/svg">
<path fill-rule="evenodd" clip-rule="evenodd" d="M30.3402 10.5L30 10.4999C28.4388 10.4999 28.7869 7.90408 28.7869 7.90408C27.5948 5.38078 25.7047 1.27578 24.6174 1.14707C22.9707 0.950977 12.6482 0.950977 11.0006 1.14707C9.91503 1.27578 8.32245 4.81928 7.13129 7.3469C7.13129 7.3469 6.15829 9.43568 5.56576 9.91771C5.48635 9.98163 5.42178 10.0412 5.36855 10.0957C3.51156 11.756 3.74892 17.4651 4.86765 18.8784C6.0527 20.3789 29.1543 20.4996 30.3402 19C31.4982 17.5358 31.4982 13 30.43 11.0242" fill="#F3AD54"/>
<path fill-rule="evenodd" clip-rule="evenodd" d="M25 22.0328C25 22.5676 25.4145 23 25.9252 23H28.9589C29.5336 23 30 22.5125 30 21.9117V20C29.365 20.3792 28.0827 20.5791 25.1055 20.8155C25.0612 20.8185 25 20.8224 25 20.8253V22.0328Z" fill="#222221"/>
<path fill-rule="evenodd" clip-rule="evenodd" d="M29.4386 9.91803V9.91803C28.8497 9.43513 27.8973 7.34632 27.8973 7.34632C26.7124 4.823 25.126 1.276 24.0452 1.14642C22.4085 0.951192 10.5948 0.951192 8.95802 1.14642C7.87987 1.27514 6.29603 4.81954 5.11206 7.34632C5.11206 7.34632 4.14406 9.43513 3.55598 9.91803C3.47705 9.98195 3.41286 10.0407 3.35995 10.0951C1.51416 11.7555 1.75096 17.4647 2.86207 18.8788C4.04084 20.3785 28.9563 20.3716 30.1351 18.871C31.2861 17.4068 31.5047 11.3287 29.4386 9.91803Z" stroke="#222221" stroke-linecap="round" stroke-linejoin="round"/>
<path fill-rule="evenodd" clip-rule="evenodd" d="M7.04186 8.80118C7.12607 8.60677 7.21458 8.40157 7.30825 8.18826C7.7886 7.09474 8.33169 5.85632 8.84985 4.8609C9.25888 4.07428 9.54504 3.64048 9.72721 3.40467C9.8415 3.25707 10.0065 3.16527 10.1869 3.14547C11.9511 2.95106 22.0454 2.95196 23.8105 3.14547C23.9892 3.16527 24.1533 3.25617 24.2676 3.40197C24.4507 3.63598 24.7385 4.06888 25.1484 4.8564C25.6657 5.85272 26.2105 7.09384 26.6909 8.18556C26.7854 8.39887 26.8739 8.60497 26.9581 8.80028C27.0887 9.10178 26.8997 9.44919 26.586 9.48429C25.1716 9.64539 21.5419 10 17.0202 10H16.9798C12.459 10 8.82923 9.64539 7.4148 9.48519C7.10029 9.45009 6.91124 9.10268 7.04186 8.80118Z" fill="white"/>
<path fill-rule="evenodd" clip-rule="evenodd" d="M7.04186 8.80118C7.12607 8.60677 7.21458 8.40157 7.30825 8.18826C7.7886 7.09474 8.33169 5.85632 8.84985 4.8609C9.25888 4.07428 9.54504 3.64048 9.72721 3.40467C9.8415 3.25707 10.0065 3.16527 10.1869 3.14547C11.9511 2.95106 22.0454 2.95196 23.8105 3.14547C23.9892 3.16527 24.1533 3.25617 24.2676 3.40197C24.4507 3.63598 24.7385 4.06888 25.1484 4.8564C25.6657 5.85272 26.2105 7.09384 26.6909 8.18556C26.7854 8.39887 26.8739 8.60497 26.9581 8.80028C27.0887 9.10178 26.8997 9.44919 26.586 9.48429C25.1716 9.64539 21.5419 10 17.0202 10H16.9798C12.459 10 8.82923 9.64539 7.4148 9.48519C7.10029 9.45009 6.91124 9.10268 7.04186 8.80118Z" stroke="#222221" stroke-linecap="round" stroke-linejoin="round"/>
<path fill-rule="evenodd" clip-rule="evenodd" d="M7 16C5.89572 16 5 15.1043 5 14C5 12.8957 5.89572 12 7 12C8.10521 12 9 12.8957 9 14C9 15.1043 8.10521 16 7 16Z" fill="white"/>
<path fill-rule="evenodd" clip-rule="evenodd" d="M7 16C5.89572 16 5 15.1043 5 14C5 12.8957 5.89572 12 7 12C8.10521 12 9 12.8957 9 14C9 15.1043 8.10521 16 7 16Z" stroke="#222221" stroke-linecap="round" stroke-linejoin="round"/>
<path fill-rule="evenodd" clip-rule="evenodd" d="M22.926 13.8754L22.0404 15.5335C21.8856 15.8234 21.6051 16 21.3017 16H12.7059C12.4034 16 12.1229 15.8234 11.969 15.5335L11.0719 13.8569C10.8705 13.4782 11.1159 13 11.5125 13H22.4766C22.882 13 23.1327 13.4889 22.926 13.8754Z" fill="white"/>
<path fill-rule="evenodd" clip-rule="evenodd" d="M22.926 13.8754L22.0404 15.5335C21.8856 15.8234 21.6051 16 21.3017 16H12.7059C12.4034 16 12.1229 15.8234 11.969 15.5335L11.0719 13.8569C10.8705 13.4782 11.1159 13 11.5125 13H22.4766C22.882 13 23.1327 13.4889 22.926 13.8754Z" stroke="#222221" stroke-linecap="round" stroke-linejoin="round"/>
<path fill-rule="evenodd" clip-rule="evenodd" d="M27 16C25.8957 16 25 15.1043 25 14C25 12.8957 25.8957 12 27 12C28.1052 12 29 12.8957 29 14C29 15.1043 28.1052 16 27 16Z" fill="white"/>
<path fill-rule="evenodd" clip-rule="evenodd" d="M27 16C25.8957 16 25 15.1043 25 14C25 12.8957 25.8957 12 27 12C28.1052 12 29 12.8957 29 14C29 15.1043 28.1052 16 27 16Z" stroke="#222221" stroke-linecap="round" stroke-linejoin="round"/>
<mask id="mask0_5276_83433" style="mask-type:alpha" maskUnits="userSpaceOnUse" x="3" y="19" width="5" height="4">
<path fill-rule="evenodd" clip-rule="evenodd" d="M3.38672 19.9531H7.80922V22.9997H3.38672V19.9531Z" fill="white"/>
</mask>
<g mask="url(#mask0_5276_83433)">
<path fill-rule="evenodd" clip-rule="evenodd" d="M7.71672 20.7811C5.08255 20.5421 3.94922 20.3391 3.38672 19.9531V21.8941C3.38672 22.5051 3.79922 23.0001 4.30839 23.0001H6.99089C7.44339 23.0001 7.80922 22.5601 7.80922 22.0171V20.7911C7.80922 20.7881 7.75505 20.7841 7.71672 20.7811Z" fill="#222221"/>
</g>
<path fill-rule="evenodd" clip-rule="evenodd" d="M31.3328 7.67279C31.543 7.5724 31.7949 7.65912 31.8988 7.86763C32.0051 8.08112 31.9159 8.34033 31.7006 8.44311L29.3489 9.5661C29.1387 9.66648 28.8869 9.57977 28.783 9.37125C28.6766 9.15777 28.7659 8.89855 28.9811 8.79577L31.3328 7.67279Z" fill="#222221"/>
<path fill-rule="evenodd" clip-rule="evenodd" d="M1.64767 7.67279C1.43746 7.5724 1.18558 7.65912 1.08171 7.86763C0.975356 8.08112 1.0646 8.34033 1.27983 8.44311L3.63152 9.5661C3.84174 9.66648 4.09362 9.57977 4.19749 9.37125C4.30384 9.15777 4.2146 8.89855 3.99937 8.79577L1.64767 7.67279Z" fill="#222221"/>
<rect x="29" y="7" width="4" height="2" rx="1" fill="#242641"/>
<rect y="7" width="4" height="2" rx="1" fill="#242641"/>
</svg>
