<svg width="40" height="40" viewBox="0 0 40 40" fill="none" xmlns="http://www.w3.org/2000/svg">
<circle cx="20" cy="20" r="20" fill="#ED0000"/>
<g clip-path="url(#clip0_8795_84156)">
<path fill-rule="evenodd" clip-rule="evenodd" d="M27.8068 29.7699C27.5459 29.7699 27.2849 29.6733 27.0858 29.48C26.6876 29.0935 26.6876 28.4669 27.0858 28.0804C27.6198 27.5622 28.1047 26.9917 28.5273 26.3848C28.9545 25.7709 29.3217 25.1142 29.6186 24.433C30.2365 23.0147 30.5499 21.5107 30.5499 19.9631C30.5499 18.4155 30.2366 16.9117 29.6186 15.4934C29.3217 14.8121 28.9546 14.1553 28.5271 13.5414C28.1047 12.9345 27.6198 12.3641 27.0857 11.8457C26.6876 11.4592 26.6876 10.8326 27.0857 10.4461C27.4839 10.0596 28.1295 10.0596 28.5277 10.4461C29.1535 11.0536 29.7219 11.7221 30.2169 12.4334C30.718 13.1532 31.1486 13.9234 31.4967 14.7224C32.2216 16.386 32.5892 18.1492 32.5892 19.9631C32.5892 21.777 32.2216 23.5403 31.4967 25.204C31.1485 26.003 30.7179 26.773 30.217 27.4927C29.7218 28.2041 29.1534 28.8727 28.5278 29.48C28.3287 29.6733 28.0677 29.7699 27.8068 29.7699Z" fill="white"/>
<path fill-rule="evenodd" clip-rule="evenodd" d="M24.3878 26.4548C24.1268 26.4548 23.8659 26.3582 23.6668 26.165C23.2687 25.7785 23.2686 25.1519 23.6668 24.7654C23.9833 24.4582 24.2706 24.1202 24.5208 23.7608C24.7734 23.398 24.9903 23.01 25.1656 22.6077C25.5303 21.771 25.7151 20.882 25.7151 19.9657C25.7151 19.0494 25.5303 18.1604 25.1656 17.3236C24.9903 16.9213 24.7734 16.5334 24.5208 16.1706C24.2706 15.8113 23.9834 15.4733 23.6667 15.1659C23.2686 14.7794 23.2687 14.1529 23.6668 13.7664C24.0651 13.3799 24.7107 13.38 25.1088 13.7665C25.5171 14.1629 25.8878 14.5989 26.2105 15.0626C26.5368 15.5313 26.8171 16.0326 27.0437 16.5525C27.5153 17.6347 27.7543 18.783 27.7543 19.9657C27.7543 21.1483 27.5153 22.2966 27.0437 23.3788C26.8171 23.8988 26.5368 24.4001 26.2105 24.8688C25.8877 25.3326 25.5171 25.7686 25.1088 26.1649C24.9097 26.3582 24.6487 26.4548 24.3878 26.4548Z" fill="white"/>
<path fill-rule="evenodd" clip-rule="evenodd" d="M11.4485 29.7698C11.1876 29.7698 10.9266 29.6733 10.7275 29.48C10.1018 28.8726 9.53345 28.204 9.03835 27.4927C8.53729 26.773 8.10679 26.0029 7.75856 25.2039C7.03362 23.5403 6.66602 21.777 6.66602 19.9631C6.66602 18.1491 7.03362 16.3859 7.75856 14.7223C8.10668 13.9233 8.53729 13.1532 9.03835 12.4333C9.5334 11.7221 10.1018 11.0535 10.7275 10.4461C11.1257 10.0597 11.7714 10.0596 12.1695 10.446C12.5677 10.8325 12.5677 11.4592 12.1695 11.8456C11.6355 12.364 11.1505 12.9345 10.7281 13.5413C10.3008 14.1553 9.93357 14.812 9.6367 15.4933C9.01865 16.9116 8.70525 18.4154 8.70525 19.9631C8.70525 21.5107 9.01865 23.0146 9.6367 24.4329C9.93363 25.1142 10.3008 25.7709 10.7281 26.3848C11.1505 26.9916 11.6355 27.5622 12.1695 28.0804C12.5677 28.4668 12.5677 29.0935 12.1695 29.48C11.9705 29.6732 11.7095 29.7698 11.4485 29.7698Z" fill="white"/>
<path fill-rule="evenodd" clip-rule="evenodd" d="M14.8666 26.4548C14.6056 26.4548 14.3447 26.3582 14.1456 26.1649C13.7373 25.7686 13.3667 25.3325 13.0438 24.8688C12.7175 24.4 12.4372 23.8987 12.2106 23.3788C11.7391 22.2966 11.5 21.1484 11.5 19.9657C11.5 18.7829 11.7391 17.6347 12.2106 16.5525C12.4372 16.0326 12.7175 15.5313 13.0438 15.0625C13.3667 14.5988 13.7373 14.1627 14.1456 13.7664C14.5437 13.38 15.1893 13.3799 15.5875 13.7664C15.9857 14.1529 15.9857 14.7795 15.5876 15.1659C15.2711 15.4732 14.9838 15.8112 14.7335 16.1706C14.481 16.5335 14.264 16.9213 14.0888 17.3235C13.7241 18.1604 13.5392 19.0493 13.5392 19.9657C13.5392 20.882 13.7241 21.7709 14.0888 22.6078C14.264 23.01 14.481 23.3979 14.7335 23.7607C14.9838 24.1202 15.2711 24.4582 15.5876 24.7654C15.9857 25.1518 15.9857 25.7785 15.5875 26.165C15.3885 26.3581 15.1275 26.4548 14.8666 26.4548Z" fill="white"/>
<path d="M19.6993 22.2145C20.9695 22.2145 21.9992 21.2151 21.9992 19.9822C21.9992 18.7494 20.9695 17.75 19.6993 17.75C18.4291 17.75 17.3994 18.7494 17.3994 19.9822C17.3994 21.2151 18.4291 22.2145 19.6993 22.2145Z" fill="white"/>
</g>
<defs>
<clipPath id="clip0_8795_84156">
<rect width="26.6667" height="20" fill="white" transform="translate(6.66602 10)"/>
</clipPath>
</defs>
</svg>
