<svg width="13" height="9" viewBox="0 0 13 9" fill="none" xmlns="http://www.w3.org/2000/svg">
<path fill-rule="evenodd" clip-rule="evenodd" d="M12.4434 4.49976C12.4434 4.61762 12.3982 4.73066 12.3178 4.814C12.2375 4.89734 12.1285 4.94416 12.0148 4.94416L1.90717 4.94416L4.60443 7.74039C4.6849 7.82384 4.73011 7.93702 4.73011 8.05503C4.73011 8.17304 4.6849 8.28622 4.60443 8.36967C4.52396 8.45312 4.41482 8.5 4.30102 8.5C4.18722 8.5 4.07808 8.45312 3.99761 8.36967L0.56926 4.8144C0.529351 4.77312 0.497688 4.72407 0.476084 4.67008C0.45448 4.61609 0.443359 4.55821 0.443359 4.49976C0.443359 4.4413 0.45448 4.38342 0.476084 4.32943C0.497688 4.27544 0.529351 4.2264 0.56926 4.18511L3.99761 0.62984C4.07808 0.546392 4.18722 0.499512 4.30102 0.499512C4.41482 0.499512 4.52396 0.546392 4.60443 0.62984C4.6849 0.713288 4.73011 0.826468 4.73011 0.944482C4.73011 1.0625 4.6849 1.17568 4.60443 1.25912L1.90717 4.05535L12.0148 4.05535C12.1285 4.05535 12.2375 4.10217 12.3178 4.18551C12.3982 4.26885 12.4434 4.38189 12.4434 4.49976Z" fill="#1D55D0" stroke="#1D55D0" stroke-width="0.4"/>
</svg>
