<svg width="21" height="35" viewBox="0 0 21 35" fill="none" xmlns="http://www.w3.org/2000/svg">
<path d="M4.58203 2.45249L5.93687 1.09766H15.4207L16.7756 2.45249" stroke="#222221" stroke-linecap="round" stroke-linejoin="round"/>
<path fill-rule="evenodd" clip-rule="evenodd" d="M10.6774 1.09766V5.16217V1.09766Z" fill="#F3AD54"/>
<path d="M10.6774 1.09766V5.16217" stroke="#222221" stroke-linecap="round" stroke-linejoin="round"/>
<g filter="url(#filter0_i_5276_83459)">
<path fill-rule="evenodd" clip-rule="evenodd" d="M1.87109 13.2931C1.87109 8.80858 1.87109 5.16406 7.29045 5.16406H14.0646C19.484 5.16406 19.484 8.80858 19.484 13.2931V24.1318C19.484 26.3808 17.6685 28.1963 15.4195 28.1963H5.93561C3.68658 28.1963 1.87109 26.3808 1.87109 24.1318V13.2931Z" fill="#F3AD54"/>
</g>
<path d="M7.29045 4.66406C5.88359 4.66406 4.77792 4.90002 3.91971 5.36369C3.05163 5.83269 2.47293 6.51529 2.09432 7.33782C1.72102 8.14881 1.54454 9.09 1.45766 10.0876C1.37109 11.0816 1.37109 12.1683 1.37109 13.2793V13.2931V24.1318C1.37109 26.657 3.41044 28.6963 5.93561 28.6963H15.4195C17.9447 28.6963 19.984 26.657 19.984 24.1318V13.2931V13.2793C19.984 12.1683 19.984 11.0816 19.8974 10.0876C19.8106 9.09 19.6341 8.14881 19.2608 7.33782C18.8822 6.51529 18.3035 5.83269 17.4354 5.36369C16.5772 4.90002 15.4715 4.66406 14.0646 4.66406H7.29045Z" stroke="#222221" stroke-linecap="round" stroke-linejoin="round"/>
<g filter="url(#filter1_i_5276_83459)">
<path fill-rule="evenodd" clip-rule="evenodd" d="M15.418 29.5508L18.1276 33.6153L15.418 29.5508Z" fill="#5062EC"/>
</g>
<path d="M15.418 29.5508L18.1276 33.6153" stroke="#222221" stroke-linecap="round" stroke-linejoin="round"/>
<g filter="url(#filter2_i_5276_83459)">
<path fill-rule="evenodd" clip-rule="evenodd" d="M5.93624 29.5508L3.22656 33.6153L5.93624 29.5508Z" fill="#5062EC"/>
</g>
<path d="M5.93624 29.5508L3.22656 33.6153" stroke="#222221" stroke-linecap="round" stroke-linejoin="round"/>
<g filter="url(#filter3_i_5276_83459)">
<path fill-rule="evenodd" clip-rule="evenodd" d="M17.4519 24.808C17.4519 25.5572 16.8449 26.1628 16.097 26.1628C15.3492 26.1628 14.7422 25.5572 14.7422 24.808C14.7422 24.0587 15.3492 23.4531 16.097 23.4531C16.8449 23.4531 17.4519 24.0587 17.4519 24.808Z" fill="#F3AD54"/>
</g>
<path d="M17.4519 24.808C17.4519 25.5572 16.8449 26.1628 16.097 26.1628C15.3492 26.1628 14.7422 25.5572 14.7422 24.808C14.7422 24.0587 15.3492 23.4531 16.097 23.4531C16.8449 23.4531 17.4519 24.0587 17.4519 24.808" stroke="#222221" stroke-linecap="round" stroke-linejoin="round"/>
<g filter="url(#filter4_i_5276_83459)">
<path fill-rule="evenodd" clip-rule="evenodd" d="M6.61202 24.808C6.61202 25.5572 6.00505 26.1628 5.25718 26.1628C4.50931 26.1628 3.90234 25.5572 3.90234 24.808C3.90234 24.0587 4.50931 23.4531 5.25718 23.4531C6.00505 23.4531 6.61202 24.0587 6.61202 24.808Z" fill="#F3AD54"/>
</g>
<path d="M6.61202 24.808C6.61202 25.5572 6.00505 26.1628 5.25718 26.1628C4.50931 26.1628 3.90234 25.5572 3.90234 24.808C3.90234 24.0587 4.50931 23.4531 5.25718 23.4531C6.00505 23.4531 6.61202 24.0587 6.61202 24.808" stroke="#222221" stroke-linecap="round" stroke-linejoin="round"/>
<g filter="url(#filter5_i_5276_83459)">
<path fill-rule="evenodd" clip-rule="evenodd" d="M14.5707 20.0646H6.83595C6.25879 20.0646 5.74124 19.7056 5.55021 19.161C4.91615 17.3536 4.69937 13.4584 4.62215 10.6729C4.58015 9.14193 5.80086 7.87109 7.33182 7.87109H14.0532C15.576 7.87109 16.79 9.12703 16.7629 10.6485C16.7141 13.5194 16.5163 17.4755 15.8402 19.207C15.637 19.73 15.1303 20.0646 14.5707 20.0646Z" fill="white"/>
</g>
<path fill-rule="evenodd" clip-rule="evenodd" d="M14.5707 20.0646H6.83595C6.25879 20.0646 5.74124 19.7056 5.55021 19.161C4.91615 17.3536 4.69937 13.4584 4.62215 10.6729C4.58015 9.14193 5.80086 7.87109 7.33182 7.87109H14.0532C15.576 7.87109 16.79 9.12703 16.7629 10.6485C16.7141 13.5194 16.5163 17.4755 15.8402 19.207C15.637 19.73 15.1303 20.0646 14.5707 20.0646Z" stroke="#222221" stroke-linecap="round" stroke-linejoin="round"/>
<defs>
<filter id="filter0_i_5276_83459" x="0.871094" y="4.16406" width="19.6133" height="25.0332" filterUnits="userSpaceOnUse" color-interpolation-filters="sRGB">
<feFlood flood-opacity="0" result="BackgroundImageFix"/>
<feBlend mode="normal" in="SourceGraphic" in2="BackgroundImageFix" result="shape"/>
<feColorMatrix in="SourceAlpha" type="matrix" values="0 0 0 0 0 0 0 0 0 0 0 0 0 0 0 0 0 0 127 0" result="hardAlpha"/>
<feOffset dx="1"/>
<feComposite in2="hardAlpha" operator="arithmetic" k2="-1" k3="1"/>
<feColorMatrix type="matrix" values="0 0 0 0 1 0 0 0 0 1 0 0 0 0 1 0 0 0 1 0"/>
<feBlend mode="normal" in2="shape" result="effect1_innerShadow_5276_83459"/>
</filter>
<filter id="filter1_i_5276_83459" x="14.918" y="29.0508" width="3.70996" height="5.06445" filterUnits="userSpaceOnUse" color-interpolation-filters="sRGB">
<feFlood flood-opacity="0" result="BackgroundImageFix"/>
<feBlend mode="normal" in="SourceGraphic" in2="BackgroundImageFix" result="shape"/>
<feColorMatrix in="SourceAlpha" type="matrix" values="0 0 0 0 0 0 0 0 0 0 0 0 0 0 0 0 0 0 127 0" result="hardAlpha"/>
<feOffset dx="2"/>
<feComposite in2="hardAlpha" operator="arithmetic" k2="-1" k3="1"/>
<feColorMatrix type="matrix" values="0 0 0 0 1 0 0 0 0 1 0 0 0 0 1 0 0 0 1 0"/>
<feBlend mode="normal" in2="shape" result="effect1_innerShadow_5276_83459"/>
</filter>
<filter id="filter2_i_5276_83459" x="2.72656" y="29.0508" width="3.70996" height="5.06445" filterUnits="userSpaceOnUse" color-interpolation-filters="sRGB">
<feFlood flood-opacity="0" result="BackgroundImageFix"/>
<feBlend mode="normal" in="SourceGraphic" in2="BackgroundImageFix" result="shape"/>
<feColorMatrix in="SourceAlpha" type="matrix" values="0 0 0 0 0 0 0 0 0 0 0 0 0 0 0 0 0 0 127 0" result="hardAlpha"/>
<feOffset dx="2"/>
<feComposite in2="hardAlpha" operator="arithmetic" k2="-1" k3="1"/>
<feColorMatrix type="matrix" values="0 0 0 0 1 0 0 0 0 1 0 0 0 0 1 0 0 0 1 0"/>
<feBlend mode="normal" in2="shape" result="effect1_innerShadow_5276_83459"/>
</filter>
<filter id="filter3_i_5276_83459" x="14.2422" y="22.9531" width="3.70996" height="3.70898" filterUnits="userSpaceOnUse" color-interpolation-filters="sRGB">
<feFlood flood-opacity="0" result="BackgroundImageFix"/>
<feBlend mode="normal" in="SourceGraphic" in2="BackgroundImageFix" result="shape"/>
<feColorMatrix in="SourceAlpha" type="matrix" values="0 0 0 0 0 0 0 0 0 0 0 0 0 0 0 0 0 0 127 0" result="hardAlpha"/>
<feOffset dx="2"/>
<feComposite in2="hardAlpha" operator="arithmetic" k2="-1" k3="1"/>
<feColorMatrix type="matrix" values="0 0 0 0 1 0 0 0 0 1 0 0 0 0 1 0 0 0 1 0"/>
<feBlend mode="normal" in2="shape" result="effect1_innerShadow_5276_83459"/>
</filter>
<filter id="filter4_i_5276_83459" x="3.40234" y="22.9531" width="3.70996" height="3.70898" filterUnits="userSpaceOnUse" color-interpolation-filters="sRGB">
<feFlood flood-opacity="0" result="BackgroundImageFix"/>
<feBlend mode="normal" in="SourceGraphic" in2="BackgroundImageFix" result="shape"/>
<feColorMatrix in="SourceAlpha" type="matrix" values="0 0 0 0 0 0 0 0 0 0 0 0 0 0 0 0 0 0 127 0" result="hardAlpha"/>
<feOffset dx="2"/>
<feComposite in2="hardAlpha" operator="arithmetic" k2="-1" k3="1"/>
<feColorMatrix type="matrix" values="0 0 0 0 1 0 0 0 0 1 0 0 0 0 1 0 0 0 1 0"/>
<feBlend mode="normal" in2="shape" result="effect1_innerShadow_5276_83459"/>
</filter>
<filter id="filter5_i_5276_83459" x="4.12109" y="7.37109" width="13.1426" height="13.1934" filterUnits="userSpaceOnUse" color-interpolation-filters="sRGB">
<feFlood flood-opacity="0" result="BackgroundImageFix"/>
<feBlend mode="normal" in="SourceGraphic" in2="BackgroundImageFix" result="shape"/>
<feColorMatrix in="SourceAlpha" type="matrix" values="0 0 0 0 0 0 0 0 0 0 0 0 0 0 0 0 0 0 127 0" result="hardAlpha"/>
<feOffset dx="3"/>
<feComposite in2="hardAlpha" operator="arithmetic" k2="-1" k3="1"/>
<feColorMatrix type="matrix" values="0 0 0 0 1 0 0 0 0 1 0 0 0 0 1 0 0 0 1 0"/>
<feBlend mode="normal" in2="shape" result="effect1_innerShadow_5276_83459"/>
</filter>
</defs>
</svg>
