<svg width="40" height="40" viewBox="0 0 40 40" fill="none" xmlns="http://www.w3.org/2000/svg">
<mask id="mask0_8795_84204" style="mask-type:alpha" maskUnits="userSpaceOnUse" x="0" y="0" width="40" height="40">
<rect width="40" height="40" rx="20" fill="#ED0000"/>
</mask>
<g mask="url(#mask0_8795_84204)">
<path fill-rule="evenodd" clip-rule="evenodd" d="M0.953049 19.4485C0.562525 19.839 0.562525 20.4722 0.95305 20.8627L19.134 39.0437C19.5246 39.4342 20.1577 39.4342 20.5483 39.0437L38.7292 20.8627C39.1198 20.4722 39.1198 19.839 38.7292 19.4485L20.5483 1.2675C20.1577 0.876978 19.5246 0.876979 19.134 1.2675L0.953049 19.4485ZM23.8326 17.642C24.6475 16.732 25.143 15.5301 25.143 14.2125C25.143 11.3722 22.8404 9.06967 20.0001 9.06967C17.1598 9.06967 14.8573 11.3722 14.8573 14.2125C14.8573 15.5296 15.3524 16.731 16.1666 17.6409C16.1506 17.7835 16.1424 17.9284 16.1424 18.0752V18.3945C16.1424 19.9505 17.0041 21.4346 18.5251 21.7628C18.9938 21.864 19.4967 21.9324 19.9996 21.9324C20.5025 21.9324 21.0054 21.864 21.4741 21.7628C22.995 21.4346 23.8567 19.9505 23.8567 18.3945V18.0752C23.8567 17.9288 23.8485 17.7842 23.8326 17.642ZM19.4585 16.0252C19.4585 16.7514 18.7312 17.3402 17.8341 17.3402C16.937 17.3402 16.2098 16.7514 16.2098 16.0252C16.2098 15.299 16.937 14.7103 17.8341 14.7103C18.7312 14.7103 19.4585 15.299 19.4585 16.0252ZM23.7905 16.0252C23.7905 16.7515 23.0633 17.3402 22.1662 17.3402C21.2691 17.3402 20.5418 16.7515 20.5418 16.0252C20.5418 15.299 21.2691 14.7103 22.1662 14.7103C23.0633 14.7103 23.7905 15.299 23.7905 16.0252ZM20.8117 19.1762L19.9995 17.3353L19.1873 19.1762H20.8117ZM14.2499 24.0438C14.3961 23.6822 14.8076 23.5075 15.1693 23.6535L20.0345 25.6168L24.8998 23.6535C25.2614 23.5075 25.673 23.6822 25.8192 24.0438C25.9655 24.4057 25.7906 24.8178 25.4286 24.9639L21.9225 26.3787L25.4289 27.7937C25.7909 27.9398 25.9658 28.3518 25.8195 28.7138C25.6732 29.0753 25.2617 29.25 24.9 29.1041L20.0345 27.1406L15.169 29.1041C14.8073 29.25 14.3958 29.0753 14.2496 28.7138C14.1032 28.3518 14.2781 27.9398 14.6402 27.7937L18.1465 26.3787L14.6405 24.9639C14.2784 24.8178 14.1035 24.4057 14.2499 24.0438Z" fill="#ED0000"/>
</g>
</svg>
