<svg width="14" height="14" viewBox="0 0 14 14" fill="none" xmlns="http://www.w3.org/2000/svg">
<path opacity="0.72" d="M7 1.19922C3.68548 1.19922 1 3.8847 1 7.19922C1 10.5137 3.68548 13.1992 7 13.1992C10.3145 13.1992 13 10.5137 13 7.19922C13 3.8847 10.3145 1.19922 7 1.19922ZM12.2258 7.19922C12.2258 10.071 9.90082 12.425 7 12.425C4.12822 12.425 1.77419 10.1 1.77419 7.19922C1.77419 4.32744 4.09918 1.97341 7 1.97341C9.87178 1.97341 12.2258 4.2984 12.2258 7.19922ZM8.62338 9.3355L6.65888 7.90808C6.58387 7.85244 6.54032 7.76536 6.54032 7.6734V3.81212C6.54032 3.65245 6.67098 3.5218 6.83065 3.5218H7.16935C7.32902 3.5218 7.45968 3.65245 7.45968 3.81212V7.35163L9.16532 8.59276C9.29598 8.68712 9.32258 8.86857 9.22822 8.99923L9.02985 9.27261C8.93548 9.40083 8.75403 9.42987 8.62338 9.3355Z" fill="#222221" stroke="#222221" stroke-width="0.6"/>
</svg>
