<svg width="18" height="18" viewBox="0 0 18 18" fill="none" xmlns="http://www.w3.org/2000/svg">
<path d="M9 1C4.58065 1 1 4.58065 1 9C1 13.4194 4.58065 17 9 17C13.4194 17 17 13.4194 17 9C17 4.58065 13.4194 1 9 1ZM15.9677 9C15.9677 12.829 12.8678 15.9677 9 15.9677C5.17096 15.9677 2.03226 12.8678 2.03226 9C2.03226 5.17096 5.13225 2.03226 9 2.03226C12.829 2.03226 15.9677 5.13225 15.9677 9Z" fill="#EC9122" stroke="#EC9122" stroke-width="0.827792"/>
<path d="M9 1C4.58065 1 1 4.58065 1 9C1 13.4194 4.58065 17 9 17C13.4194 17 17 13.4194 17 9C17 4.58065 13.4194 1 9 1ZM15.9677 9C15.9677 12.829 12.8678 15.9677 9 15.9677C5.17096 15.9677 2.03226 12.8678 2.03226 9C2.03226 5.17096 5.13225 2.03226 9 2.03226C12.829 2.03226 15.9677 5.13225 15.9677 9ZM11.1645 11.8484L8.54517 9.94516C8.44515 9.87097 8.3871 9.75485 8.3871 9.63225V4.48387C8.3871 4.27098 8.5613 4.09677 8.77419 4.09677H9.22581C9.4387 4.09677 9.6129 4.27098 9.6129 4.48387V9.20322L11.8871 10.8581C12.0613 10.9839 12.0968 11.2258 11.971 11.4L11.7065 11.7645C11.5806 11.9355 11.3387 11.9742 11.1645 11.8484Z" fill="#EC9122" stroke="#EC9122" stroke-width="0.827792"/>
</svg>
