<svg width="40" height="40" viewBox="0 0 40 40" fill="none" xmlns="http://www.w3.org/2000/svg">
<g opacity="0.48" filter="url(#filter0_d_7798_75522)">
<rect x="4" y="4" width="32" height="32" rx="16" fill="white"/>
<rect x="4.25" y="4.25" width="31.5" height="31.5" rx="15.75" stroke="#1D55D0" stroke-opacity="0.32" stroke-width="0.5"/>
</g>
<path d="M24.6246 16C24.6246 16.8974 23.8972 17.625 22.9998 17.625C22.1024 17.625 21.375 16.8974 21.375 16C21.375 15.1026 22.1024 14.375 22.9998 14.375C23.8972 14.375 24.6246 15.1026 24.6246 16Z" fill="#1D55D0"/>
<path d="M22.9997 18C21.8968 18 21 17.103 21 16C21 14.897 21.8968 14 22.9997 14C24.1026 14 24.9995 14.897 24.9995 16C24.9995 17.103 24.1026 18 22.9997 18ZM22.9997 14.75C22.3103 14.75 21.7499 15.311 21.7499 16C21.7499 16.689 22.3103 17.25 22.9997 17.25C23.6891 17.25 24.2496 16.689 24.2496 16C24.2496 15.311 23.6891 14.75 22.9997 14.75Z" fill="#1D55D0"/>
<path d="M24.6246 24C24.6246 24.8974 23.8972 25.625 22.9998 25.625C22.1024 25.625 21.375 24.8974 21.375 24C21.375 23.1026 22.1024 22.375 22.9998 22.375C23.8972 22.375 24.6246 23.1026 24.6246 24Z" fill="#1D55D0"/>
<path d="M22.9997 26C21.8968 26 21 25.103 21 24C21 22.897 21.8968 22 22.9997 22C24.1026 22 24.9995 22.897 24.9995 24C24.9995 25.103 24.1026 26 22.9997 26ZM22.9997 22.75C22.3103 22.75 21.7499 23.311 21.7499 24C21.7499 24.689 22.3103 25.25 22.9997 25.25C23.6891 25.25 24.2496 24.689 24.2496 24C24.2496 23.311 23.6891 22.75 22.9997 22.75Z" fill="#1D55D0"/>
<path d="M17.6247 20C17.6247 20.8974 16.8972 21.6249 15.9998 21.6249C15.1025 21.6249 14.375 20.8974 14.375 20C14.375 19.1025 15.1025 18.375 15.9998 18.375C16.8972 18.375 17.6247 19.1025 17.6247 20Z" fill="#1D55D0"/>
<path d="M15.9997 21.9999C14.8969 21.9999 14 21.103 14 20C14 18.8969 14.8969 18 15.9997 18C17.1026 18 17.9996 18.8969 17.9996 20C17.9996 21.103 17.1026 21.9999 15.9997 21.9999ZM15.9997 18.75C15.3103 18.75 14.7499 19.3109 14.7499 20C14.7499 20.689 15.3103 21.2499 15.9997 21.2499C16.6892 21.2499 17.2497 20.689 17.2497 20C17.2497 19.3109 16.6892 18.75 15.9997 18.75Z" fill="#1D55D0"/>
<path d="M17.1801 19.7628C17.0061 19.7628 16.8371 19.6722 16.7451 19.5103C16.6086 19.2708 16.6927 18.9653 16.9321 18.8282L21.571 16.1833C21.8105 16.0458 22.116 16.1298 22.253 16.3702C22.3895 16.6097 22.3055 16.9153 22.066 17.0523L17.427 19.6972C17.349 19.7417 17.2641 19.7628 17.1801 19.7628Z" fill="#1D55D0"/>
<path d="M21.8181 23.8877C21.734 23.8877 21.6491 23.8666 21.5711 23.8221L16.9321 21.1772C16.6926 21.0407 16.6087 20.7352 16.7451 20.4951C16.8811 20.2552 17.187 20.1707 17.427 20.3082L22.066 22.9531C22.3055 23.0896 22.3895 23.3951 22.253 23.6352C22.1605 23.7971 21.9915 23.8877 21.8181 23.8877Z" fill="#1D55D0"/>
<defs>
<filter id="filter0_d_7798_75522" x="0" y="0" width="40" height="40" filterUnits="userSpaceOnUse" color-interpolation-filters="sRGB">
<feFlood flood-opacity="0" result="BackgroundImageFix"/>
<feColorMatrix in="SourceAlpha" type="matrix" values="0 0 0 0 0 0 0 0 0 0 0 0 0 0 0 0 0 0 127 0" result="hardAlpha"/>
<feOffset/>
<feGaussianBlur stdDeviation="2"/>
<feColorMatrix type="matrix" values="0 0 0 0 0 0 0 0 0 0 0 0 0 0 0 0 0 0 0.04 0"/>
<feBlend mode="normal" in2="BackgroundImageFix" result="effect1_dropShadow_7798_75522"/>
<feBlend mode="normal" in="SourceGraphic" in2="effect1_dropShadow_7798_75522" result="shape"/>
</filter>
</defs>
</svg>
