<svg width="40" height="40" viewBox="0 0 40 40" fill="none" xmlns="http://www.w3.org/2000/svg">
<mask id="mask0_8795_84301" style="mask-type:alpha" maskUnits="userSpaceOnUse" x="0" y="0" width="40" height="40">
<rect width="40" height="40" rx="20" fill="#D02645"/>
</mask>
<g mask="url(#mask0_8795_84301)">
<rect width="40" height="40" rx="20" fill="#ED0000"/>
<path fill-rule="evenodd" clip-rule="evenodd" d="M25.5124 8.21081L25.5743 17.344L21.1493 21.1679L23.532 31.5968L16.0435 34.7254L18.4262 43.0685L8.55506 41.678L1.40697 34.7254L1.74735 29.1634L14.3416 25.6239L14.3416 17.2176L21.9848 15.4162L25.5124 8.21081Z" fill="white"/>
<mask id="mask1_8795_84301" style="mask-type:alpha" maskUnits="userSpaceOnUse" x="0" y="0" width="40" height="40">
<rect width="40" height="40" rx="20" fill="#D02645"/>
</mask>
<g mask="url(#mask1_8795_84301)">
<rect width="40" height="40" rx="20" fill="#ED0000"/>
<mask id="mask2_8795_84301" style="mask-type:alpha" maskUnits="userSpaceOnUse" x="10" y="15" width="22" height="19">
<path fill-rule="evenodd" clip-rule="evenodd" d="M10.332 15.6484H31.8719V33.9474H10.332V15.6484Z" fill="white"/>
</mask>
<g mask="url(#mask2_8795_84301)">
<path fill-rule="evenodd" clip-rule="evenodd" d="M28.4911 15.6484L29.2211 18.2415L11.0606 22.8758L10.332 20.2828L28.4911 15.6484ZM29.5855 19.5391L30.3169 22.1334L25.7247 23.3047C25.2742 22.3173 24.4757 21.5465 23.5088 21.0899L29.5855 19.5391ZM16.7475 25.5989L12.1567 26.7689L11.4268 24.1759L17.5035 22.625C16.9078 23.482 16.6201 24.5293 16.7475 25.5989ZM30.6812 23.4219L31.4111 26.0162L25.333 27.5684C25.9301 26.7101 26.2164 25.664 26.0904 24.5932L30.6812 23.4219ZM19.3296 29.1054L13.2528 30.6563L12.5215 28.0632L17.1123 26.8906C17.5642 27.8767 18.3627 28.6489 19.3296 29.1054ZM31.7753 27.3281C32.1779 28.7616 31.2863 30.2342 29.7812 30.619L17.0703 33.8629C15.5651 34.2464 14.0189 33.3959 13.6162 31.9638L31.7753 27.3281Z" fill="white"/>
</g>
<path fill-rule="evenodd" clip-rule="evenodd" d="M20.5651 22.0926C19.5626 22.3483 18.9668 23.3305 19.2353 24.2865C19.416 24.9257 19.9378 25.3913 20.5651 25.5518L21.117 27.5135C21.2513 27.9896 21.7662 28.2739 22.2675 28.1461C22.7687 28.0183 23.0673 27.5279 22.9331 27.0505L22.3812 25.0887C22.84 24.6518 23.0468 23.9996 22.8674 23.3592C22.5989 22.4031 21.5676 21.837 20.5651 22.0926ZM19.8955 19.7158C23.0304 18.915 26.2516 20.6876 27.0912 23.6719C27.9307 26.6576 26.0708 29.7267 22.9373 30.525C19.8024 31.3245 16.5811 29.5545 15.7416 26.5689C14.902 23.5845 16.7619 20.5154 19.8955 19.7158Z" fill="white"/>
<path d="M14.3437 21.5909C13.8301 19.7661 13.6863 19.2704 13.3097 17.9309C12.87 16.3709 9.72276 15.0535 9.32422 14.9922" stroke="white" stroke-width="1.125"/>
<path d="M25.3836 18.7106V10.6837C25.3836 7.34584 22.5431 4.64062 19.0384 4.64062C17.4114 4.64062 15.9268 5.22367 14.8037 6.18367" stroke="white" stroke-width="1.125"/>
</g>
</g>
</svg>
